<?xml version="1.0" encoding="utf-8"?>
<!-- Generator: Adobe Illustrator 23.0.3, SVG Export Plug-In . SVG Version: 6.00 Build 0)  -->
<svg version="1.1" id="Atoms" xmlns="http://www.w3.org/2000/svg" xmlns:xlink="http://www.w3.org/1999/xlink" x="0px" y="0px"
	 viewBox="0 0 260 260" style="enable-background:new 0 0 260 260;" xml:space="preserve">
<style type="text/css">
	.st0{fill:#01A4DE;}
	.st1{fill:#FFFFFF;}
</style>
<g>
	<path class="st1" d="M232.9,104.1c0.6,5.6-4.6,9.3-8.1,12c-11.5,8.6-25.4,16-38.4,22.8c11.1,12.8,24.5,28.3,33.9,45.3
		c6,10.8,13.4,31.3-9,29.7c-12.3-0.9-24-6.7-34.2-12c-10.6-5.5-20.7-11.4-29.1-17.1c-6.3,18.3-12.4,36.9-23.4,51
		c-3.4,4.4-7.2,10.1-13.5,11.1c-2.3-7,1.5-13.6,3.9-18.9c7.7-16.7,21.3-28.2,27-46.8c-7-5.5-14.4-10.6-21.6-15.9
		c-8,2.5-16.3,4.7-24.6,6.9c0.7,10.8,1.2,21.8,4.2,30.3c-3.6,4.2-7.2,8.4-10.5,12.9c-1.6-20.5-0.6-42.6,1.5-62.7
		c0.4-3.6,1.6-8.4,1.2-10.8c-0.4-2.3-7.6-8.2-9.3-9.9c-3.4-3.3-6.4-6.2-9.6-9.3c-5.6,3.7-11.8,7.9-17.7,12.9
		c-5.3,4.5-11.8,10.1-13.5,17.1c-1.2,5,0.9,9.1,3.9,11.4c8.4,6.2,26.6,4.9,39.3,3.6c0.1,2.5-0.1,4.7-0.3,6.9c-11.2,2-23.7,5-37.8,6
		c-13.6,0.9-30.5,0.7-36.9-6.3c-2.3-2.5-3.2-6.7-1.5-11.1c2.8-7.2,10.6-13.9,16.8-18.9c19.7-16.1,45.1-27.7,69-38.1
		c-0.3,1.8-0.8,3.4-0.6,5.7c-5.6,1.9-9.8,5.2-15,7.5c8.3,10.4,18.1,20.1,28.2,29.1c3.3,2.9,7.1,5.3,9.6,8.7
		c-1.6,0.3-2.9,0.9-4.2,1.5c-5.6-4.1-10.4-9-15.9-13.2c-0.2,6.9-0.9,13.3-0.9,20.4c18.9-3.4,35.9-8.7,51.9-15c-0.4,2-1,3.8-1.5,5.7
		c-6.5,2.2-12.7,4.7-19.5,6.6c7.1,5.6,16.2,11.4,25.8,16.5c9.2,4.9,20.3,10,31.5,10.8c9.2,0.6,15.7-2.7,15-12.3
		c-1.1-14.9-12.9-26.4-19.2-36c-7.7,3.5-15.3,7.1-23.4,10.2c-1.6,7.1-3.4,14.2-5.4,21c-2.2-0.4-3.8-1.4-5.4-2.4
		c5.4-14.4,8.8-30.8,11.7-47.7c0.9-0.6,3.6,2,3.9,3.3c1,4.6-3.6,14.8-3.3,19.5c12.9-5.4,24.4-12,36-20.7c5-3.8,10-8.5,15.9-12.6
		C215.9,108.5,224.3,102.8,232.9,104.1"/>
	<path class="st1" d="M178.3,131.7c-1.7,0.7-3,1.8-4.5,2.7c-15.9-18.1-34.9-34.9-57.6-48.9C106,79.2,94.2,72,80.5,68.1
		c-6.9-2-14.6-1.5-23.7-3c-5.2-0.9-17.2-3.2-15.6-10.8c1-4.8,13.1-5,18.6-4.5c7.3,0.6,13.5,3.1,18,5.4c10.8,5.5,20,11.3,29.7,17.1
		c3.6-11,8.2-24.1,13.8-36.3c5.3-11.5,11.3-23.9,20.1-30c7-4.8,14-1.1,17.4,5.1c6.6,12.1,8,31.2,8.1,50.1
		c0.1,19.2-1.6,38.4-3.9,54.3C167.6,121.1,174.6,126,178.3,131.7 M158.5,111c1.2-11.7,1.4-26.5,0-39.9c-1.3-12.2-3.7-25.6-11.4-30.3
		c-4.9-3-10.9-0.3-14.1,2.4c-8.9,7.5-14.8,22-19.5,33c14.5,10.2,29.4,22,42.6,33.3C156.7,110,157.3,111.5,158.5,111"/>
	<path class="st1" d="M126.7,119.4c13.6-2,14.8,19.7,1.2,19.5c-3.4,0-8.6-2.4-9.6-7.5C116.8,124,121.3,120.2,126.7,119.4"/>
	<path class="st1" d="M104.2,83.4c2.2,0.5,3.9,1.5,5.4,2.7c-5,14.9-8.9,30.9-11.7,48c-0.8,0.9-3.8-2.6-3.9-3.3
		C96.3,113.8,100.3,98.6,104.2,83.4"/>
	<path class="st1" d="M71.8,110.7c-1.8,1.3-4.2,2-6,3.3c-9-8.6-16.3-18.9-23.7-29.1c4.5-0.1,9.7,1.7,15.6,1.2
		C61.2,95.5,65.9,103.6,71.8,110.7"/>
</g>
</svg>
